<svg width="1518" height="143" viewBox="0 0 1518 143" fill="none" xmlns="http://www.w3.org/2000/svg">
<path d="M78.5232 71.8122C65.5269 71.8122 26.1744 139.198 0 139.198C0 117.46 65.5269 3.33996 78.5232 3.33996C91.5195 3.33996 157.046 117.46 157.046 139.198C130.872 139.198 91.5195 71.8122 78.5232 71.8122Z" fill="#E8E8E8"/>
<path d="M63.5664 106.791C63.5664 98.5307 70.2628 91.8343 78.5232 91.8343C86.7836 91.8343 93.48 98.5307 93.48 106.791C93.48 115.052 86.7836 121.748 78.5232 121.748C70.2628 121.748 63.5664 115.052 63.5664 106.791Z" fill="#E8E8E8"/>
<path d="M283.395 2.82874V14.5478H236.014V139.821H206.514V14.5478H159.032V2.82874H283.395Z" fill="#E8E8E8"/>
<path d="M309.46 2.82874H338.354L386.139 96.8844L436.046 2.82874H464.233V139.821H434.733V42.027L386.139 139.821H376.845L326.736 42.2291V139.821H309.46V2.82874Z" fill="#E8E8E8"/>
<path d="M575.16 142.852C564.384 142.852 554.348 141.067 545.054 137.497C535.76 133.928 527.677 128.944 520.808 122.545C514.005 116.079 508.651 108.435 504.744 99.6122C500.838 90.7218 498.885 80.9896 498.885 70.4155C498.885 60.0434 500.838 50.5469 504.744 41.926C508.651 33.2377 514.005 25.7954 520.808 19.5991C527.677 13.4029 535.76 8.58726 545.054 5.15235C554.348 1.71745 564.384 0 575.16 0C585.936 0 595.971 1.75113 605.266 5.25338C614.56 8.68828 622.642 13.5039 629.512 19.7002C636.382 25.8965 641.77 33.3051 645.676 41.926C649.583 50.4796 651.536 59.8751 651.536 70.1124C651.536 81.0233 649.583 90.9576 645.676 99.9152C641.77 108.873 636.382 116.551 629.512 122.949C622.642 129.28 614.56 134.197 605.266 137.699C595.971 141.134 585.936 142.852 575.16 142.852ZM575.16 131.334C582.164 131.334 588.327 129.819 593.648 126.788C599.036 123.69 603.548 119.447 607.185 114.059C610.822 108.671 613.55 102.273 615.368 94.8639C617.254 87.388 618.197 79.2385 618.197 70.4155C618.197 61.7272 617.254 53.7798 615.368 46.5732C613.55 39.3667 610.822 33.1704 607.185 27.9844C603.548 22.7983 599.036 18.7573 593.648 15.8612C588.327 12.9651 582.164 11.517 575.16 11.517C568.088 11.517 561.858 12.9651 556.47 15.8612C551.149 18.7573 546.67 22.7983 543.034 27.9844C539.464 33.1704 536.736 39.3667 534.85 46.5732C533.032 53.7798 532.123 61.7272 532.123 70.4155C532.123 79.2385 533.032 87.388 534.85 94.8639C536.736 102.273 539.464 108.671 543.034 114.059C546.67 119.447 551.149 123.69 556.47 126.788C561.858 129.819 568.088 131.334 575.16 131.334Z" fill="#E8E8E8"/>
<path d="M732.357 141.841C724.477 141.841 717.574 140.898 711.647 139.013C705.787 137.059 700.77 134.399 696.594 131.031C692.485 127.664 689.185 123.656 686.693 119.009C684.201 114.295 682.484 109.142 681.541 103.552H700.938C701.746 106.987 702.958 110.186 704.575 113.15C706.191 116.113 708.246 118.706 710.738 120.929C713.297 123.084 716.328 124.801 719.83 126.081C723.4 127.293 727.508 127.9 732.155 127.9C735.253 127.9 738.318 127.597 741.349 126.99C744.379 126.384 747.073 125.408 749.431 124.061C751.855 122.646 753.809 120.861 755.29 118.706C756.772 116.484 757.513 113.756 757.513 110.523C757.513 106.819 756.536 103.485 754.583 100.521C752.63 97.4906 750.037 94.7292 746.804 92.2372C743.571 89.6779 739.833 87.3206 735.59 85.1654C731.414 82.9428 727.104 80.7202 722.659 78.4976C718.011 76.2077 713.398 73.8167 708.818 71.3247C704.238 68.8327 700.13 66.0377 696.493 62.9395C692.856 59.774 689.926 56.1708 687.703 52.1297C685.481 48.0886 684.37 43.3741 684.37 37.986C684.37 32.5305 685.515 27.5129 687.805 22.933C690.094 18.2858 693.395 14.2784 697.705 10.9109C702.083 7.47596 707.404 4.8156 713.667 2.92977C719.998 0.97659 727.171 0 735.186 0C741.719 0 747.646 0.942914 752.967 2.82874C758.355 4.71457 763.103 7.34126 767.211 10.7088C771.32 14.009 774.788 17.9154 777.617 22.4279C780.446 26.8731 782.635 31.655 784.184 36.7737H766.908C765.696 33.5408 764.248 30.4427 762.564 27.4792C760.948 24.5158 758.86 21.9228 756.301 19.7002C753.809 17.4776 750.744 15.7265 747.107 14.4468C743.537 13.0998 739.227 12.4263 734.176 12.4263C729.394 12.4263 725.386 12.9987 722.154 14.1437C718.921 15.2887 716.294 16.7704 714.273 18.5889C712.32 20.34 710.906 22.3269 710.03 24.5494C709.155 26.7047 708.717 28.8262 708.717 30.9141C708.717 34.0796 709.694 37.0431 711.647 39.8045C713.667 42.5658 716.328 45.1925 719.628 47.6845C722.928 50.1765 726.666 52.5675 730.842 54.8574C735.085 57.08 739.395 59.3026 743.773 61.5252C748.555 63.9498 753.337 66.5091 758.119 69.2032C762.901 71.8299 767.211 74.7596 771.05 77.9925C774.889 81.2253 777.988 84.8623 780.345 88.9034C782.769 92.8771 783.982 97.3896 783.982 102.441C783.982 108.031 782.87 113.217 780.648 117.999C778.425 122.781 775.125 126.957 770.747 130.526C766.437 134.029 761.049 136.79 754.583 138.81C748.185 140.831 740.776 141.841 732.357 141.841Z" fill="#E8E8E8"/>
<path d="M887.494 5.85954L939.523 113.453L987.106 5.85954H997.613L936.997 142.75L932.754 142.953L867.39 5.85954H887.494Z" fill="#E8E8E8"/>
<path d="M1018.32 5.85954H1036.81V139.821H1018.32V5.85954Z" fill="#E8E8E8"/>
<path d="M1077.32 5.85954H1095.81V131.132H1163.3V139.821H1077.32V5.85954Z" fill="#E8E8E8"/>
<path d="M1187.44 5.85954H1205.93V131.132H1273.42V139.821H1187.44V5.85954Z" fill="#E8E8E8"/>
<path d="M1346.15 2.82874L1409.19 139.821H1389.9L1369.49 95.167H1310.19L1289.28 139.821H1278.37L1342.42 2.82874H1346.15ZM1314.33 86.4787H1365.35L1339.69 32.0254L1314.33 86.4787Z" fill="#E8E8E8"/>
<path d="M1473.55 134.466C1477.12 134.466 1480.62 134.029 1484.06 133.153C1487.56 132.21 1490.66 130.863 1493.35 129.112C1496.11 127.293 1498.33 125.105 1500.02 122.545C1501.7 119.918 1502.54 116.888 1502.54 113.453C1502.54 109.748 1501.57 106.381 1499.61 103.35C1497.66 100.319 1495.07 97.5243 1491.83 94.9649C1488.6 92.3382 1484.86 89.8799 1480.62 87.59C1476.44 85.2327 1472.13 82.9091 1467.69 80.6192C1462.97 78.1945 1458.29 75.7026 1453.65 73.1432C1449.07 70.5165 1444.92 67.5868 1441.22 64.3539C1437.58 61.0537 1434.62 57.3494 1432.33 53.241C1430.11 49.0652 1429 44.2159 1429 38.6932C1429 33.5745 1429.91 28.8262 1431.72 24.4484C1433.54 20.0706 1436.2 16.2989 1439.7 13.1334C1443.27 9.9006 1447.65 7.37494 1452.84 5.55646C1458.02 3.73798 1463.95 2.82874 1470.62 2.82874C1476.61 2.82874 1481.97 3.50225 1486.68 4.84927C1491.46 6.19629 1495.64 8.21682 1499.21 10.9109C1502.85 13.5376 1505.94 16.8041 1508.5 20.7104C1511.06 24.6168 1513.18 29.1293 1514.87 34.248L1506.79 37.986C1505.51 34.0796 1503.79 30.51 1501.63 27.2772C1499.55 23.977 1496.99 21.1819 1493.96 18.892C1490.93 16.5347 1487.39 14.7162 1483.35 13.4365C1479.31 12.1569 1474.73 11.517 1469.61 11.517C1465.03 11.517 1461.02 12.1232 1457.59 13.3355C1454.15 14.4805 1451.29 16.0295 1449 17.9827C1446.78 19.8686 1445.09 22.0238 1443.95 24.4484C1442.8 26.8057 1442.23 29.2303 1442.23 31.7223C1442.23 34.7531 1443.21 37.6492 1445.16 40.4106C1447.18 43.1047 1449.81 45.6977 1453.04 48.1897C1456.34 50.6816 1460.08 53.1063 1464.25 55.4636C1468.43 57.7535 1472.71 60.0434 1477.08 62.3334C1481.93 64.8254 1486.78 67.4857 1491.63 70.3145C1496.48 73.0759 1500.86 76.174 1504.77 79.6089C1508.67 82.9765 1511.84 86.7144 1514.26 90.8229C1516.75 94.8639 1518 99.4101 1518 104.461C1518 109.782 1517.02 114.8 1515.07 119.514C1513.12 124.162 1510.22 128.236 1506.38 131.739C1502.54 135.174 1497.73 137.901 1491.94 139.922C1486.21 141.942 1479.54 142.953 1471.93 142.953C1465.87 142.953 1460.42 142.245 1455.57 140.831C1450.72 139.417 1446.41 137.362 1442.63 134.668C1438.93 131.907 1435.73 128.573 1433.04 124.667C1430.41 120.693 1428.19 116.181 1426.37 111.129L1434.96 107.593C1436.3 111.836 1438.19 115.608 1440.61 118.908C1443.11 122.208 1446 125.037 1449.3 127.394C1452.6 129.684 1456.31 131.436 1460.42 132.648C1464.52 133.86 1468.9 134.466 1473.55 134.466Z" fill="#E8E8E8"/>
</svg>
